HIERARCHY
ROOT Hips
{
 OFFSET 0.000000 0.000000 0.000000
 CHANNELS 6 Xposition Yposition Zposition Yrotation Xrotation Zrotation
 JOINT Chest
 {
  OFFSET 0.000000 9.585900 0.002600
  CHANNELS 3 Yrotation Xrotation Zrotation
  JOINT Chest2
  {
   OFFSET 0.000000 9.601200 -0.005300
   CHANNELS 3 Yrotation Xrotation Zrotation
   JOINT Chest3
   {
    OFFSET 0.000000 9.561800 0.000000
    CHANNELS 3 Yrotation Xrotation Zrotation
    JOINT Chest4
    {
     OFFSET 0.000000 9.552100 0.000000
     CHANNELS 3 Yrotation Xrotation Zrotation
     JOINT Neck
     {
      OFFSET 0.000000 14.453000 0.000000
      CHANNELS 3 Yrotation Xrotation Zrotation
      JOINT Head
      {
       OFFSET 0.000000 8.936500 -0.011300
       CHANNELS 3 Yrotation Xrotation Zrotation
       End Site
       {
        OFFSET 0.000000 17.073600 -0.006000
       }
      }
     }
     JOINT RightCollar
     {
      OFFSET -2.921100 9.558500 0.000000
      CHANNELS 3 Yrotation Xrotation Zrotation
      JOINT RightShoulder
      {
       OFFSET -13.519700 0.000000 0.000000
       CHANNELS 3 Yrotation Xrotation Zrotation
       JOINT RightElbow
       {
        OFFSET 0.000000 -29.696600 0.000000
        CHANNELS 3 Yrotation Xrotation Zrotation
        JOINT RightWrist
        {
         OFFSET 0.000000 -24.004700 0.000000
         CHANNELS 3 Yrotation Xrotation Zrotation
         End Site
         {
          OFFSET 0.000000 -17.728500 0.000000
         }
        }
       }
      }
     }
     JOINT LeftCollar
     {
      OFFSET 2.921100 9.558500 0.000000
      CHANNELS 3 Yrotation Xrotation Zrotation
      JOINT LeftShoulder
      {
       OFFSET 13.519700 0.000000 0.000000
       CHANNELS 3 Yrotation Xrotation Zrotation
       JOINT LeftElbow
       {
        OFFSET 0.000000 -29.696600 0.000000
        CHANNELS 3 Yrotation Xrotation Zrotation
        JOINT LeftWrist
        {
         OFFSET 0.000000 -24.004700 0.000000
         CHANNELS 3 Yrotation Xrotation Zrotation
         End Site
         {
          OFFSET 0.000000 -17.728500 0.000000
         }
        }
       }
      }
     }
    }
   }
  }
 }
 JOINT RightHip
 {
  OFFSET -7.771700 -0.012900 -0.001300
  CHANNELS 3 Yrotation Xrotation Zrotation
  JOINT RightKnee
  {
   OFFSET 0.000000 -40.869800 0.001200
   CHANNELS 3 Yrotation Xrotation Zrotation
   JOINT RightAnkle
   {
    OFFSET 0.000000 -39.717900 0.002100
    CHANNELS 3 Yrotation Xrotation Zrotation
    JOINT RightToe
    {
     OFFSET 0.000000 -4.965400 11.033500
     CHANNELS 3 Yrotation Xrotation Zrotation
     End Site
     {
      OFFSET 0.000000 -1.423100 5.872300
     }
    }
   }
  }
 }
 JOINT LeftHip
 {
  OFFSET 7.771700 -0.012900 -0.001300
  CHANNELS 3 Yrotation Xrotation Zrotation
  JOINT LeftKnee
  {
   OFFSET 0.000000 -40.869800 0.001200
   CHANNELS 3 Yrotation Xrotation Zrotation
   JOINT LeftAnkle
   {
    OFFSET 0.000000 -39.717900 0.002100
    CHANNELS 3 Yrotation Xrotation Zrotation
    JOINT LeftToe
    {
     OFFSET 0.000000 -4.965400 11.033500
     CHANNELS 3 Yrotation Xrotation Zrotation
     End Site
     {
      OFFSET 0.000000 -1.423100 5.872300
     }
    }
   }
  }
 }
}
MOTION
Frames: 16
Frame Time: 0.008333
0.000000 85.388000 0.000000 0.000000 -5.767877 0.000000 0.000000 11.653817 0.000000 0.000000 -5.885947 0.000000 0.000000 -0.000000 0.000000 0.000000 -0.000000 0.000000 0.000000 12.528835 0.000000 0.000000 0.711642 0.000000 0.000000 -0.000000 0.000000 0.000000 0.000000 -90.000000 0.000000 -2.309062 0.000000 0.000000 2.309062 0.000000 0.000000 -0.000000 0.000000 0.000000 -0.000000 90.000000 0.000000 -2.309062 0.000000 0.000000 2.309062 0.000000 0.000000 8.520406 0.000000 0.000000 1.905762 0.000000 -0.000000 -4.658285 0.000000 0.000000 -0.000000 0.000000 0.000000 8.520406 0.000000 0.000000 1.905762 0.000000 -0.000000 -4.658285 0.000000 0.000000 -0.000000 0.000000
-226.532406 57.186904 135.655626 -177.413340 -29.281132 -1.896092 0.437712 16.787163 1.330418 0.025787 1.727047 0.158024 0.042359 2.883507 0.262210 0.360456 14.777149 1.392827 -7.897923 11.524412 -3.144847 -13.781022 -14.314796 -2.644337 1.456742 -1.754460 -0.601925 9.495184 -12.677799 -19.719520 124.211129 -71.959866 -80.282571 15.134366 -15.039044 -50.132952 -5.622665 -3.166176 -1.450799 3.878635 -8.764182 1.807470 -117.089924 -66.241925 80.291954 -15.748668 -7.603373 11.418578 6.889758 -46.264406 -7.084334 -10.469687 69.590194 -15.712914 4.349020 21.784978 6.796253 -0.764125 -15.559295 6.369938 -9.280475 -44.751315 1.196523 30.539713 70.766550 30.789734 -15.502672 1.691516 -5.235370 0.026852 0.247736 0.044941
-226.530775 57.188033 135.651876 -177.416937 -29.270000 -1.899444 0.439445 16.778396 1.332546 0.027805 1.726059 0.159306 0.042384 2.883241 0.262276 0.345594 14.771495 1.393249 -8.270249 11.524373 -3.287919 -14.432420 -14.306872 -2.760357 1.451450 -1.773495 -0.596859 9.483775 -12.701206 -19.674191 124.312564 -71.885509 -80.346323 15.114755 -14.652202 -50.032215 -5.632563 -3.156116 -1.449646 3.795821 -8.665259 1.815911 -116.988350 -66.355928 80.009789 -15.811285 -7.496643 10.753327 6.890883 -46.273616 -7.077850 -10.462822 69.593019 -15.704863 4.338394 21.784093 6.797893 -0.773819 -15.583881 6.369598 -9.264444 -44.763347 1.209938 30.563472 70.770492 30.807696 -15.534429 1.691733 -5.212753 0.051344 0.239717 0.032572
-226.527669 57.188893 135.647630 -177.409105 -29.252058 -1.916187 0.431801 16.762326 1.342245 0.023018 1.726649 0.157162 0.041056 2.881647 0.262653 0.331301 14.758667 1.400583 -8.628638 11.531550 -3.434328 -15.055285 -14.286418 -2.889572 1.466939 -1.772080 -0.601934 9.466712 -12.732424 -19.646488 124.378276 -71.837069 -80.379227 15.103831 -14.361691 -49.929181 -5.637192 -3.140831 -1.457950 3.698358 -8.576907 1.827697 -116.785773 -66.489625 79.595428 -15.820581 -7.368425 10.139116 6.875396 -46.284091 -7.060856 -10.460210 69.590872 -15.698515 4.325196 21.775724 6.800352 -0.772803 -15.586953 6.364010 -9.277745 -44.779937 1.232612 30.602269 70.769494 30.839083 -15.517207 1.695002 -5.195777 0.032478 0.235288 0.024806
-226.525811 57.190478 135.640799 -177.395941 -29.242940 -1.927969 0.390523 16.748596 1.341122 0.040156 1.729597 0.154281 0.039014 2.878341 0.263064 0.330610 14.756739 1.403118 -8.988410 11.535760 -3.568768 -15.647998 -14.254223 -3.029135 1.469499 -1.777139 -0.603350 9.469985 -12.734226 -19.640432 124.412756 -71.805962 -80.400695 15.081747 -14.224727 -49.903669 -5.683549 -3.133012 -1.462054 3.617073 -8.500522 1.840691 -116.434244 -66.623417 79.020370 -15.764177 -7.201693 9.671520 6.860268 -46.279694 -7.050946 -10.463732 69.587793 -15.703581 4.329566 21.748860 6.807693 -0.786156 -15.587447 6.363322 -9.285510 -44.787573 1.242553 30.598014 70.772130 30.836838 -15.524076 1.697156 -5.193543 0.037145 0.230177 0.024657
-226.524481 57.192169 135.632372 -177.384152 -29.237175 -1.936030 0.356071 16.736024 1.340205 0.017535 1.719515 0.158861 0.063332 2.886320 0.258497 0.332756 14.757641 1.402380 -9.339925 11.542232 -3.696192 -16.212103 -14.211394 -3.172399 1.459489 -1.800023 -0.605078 9.465053 -12.771577 -19.619445 124.260224 -71.880078 -80.196716 15.097950 -14.199175 -49.962343 -5.732134 -3.135026 -1.471831 3.523025 -8.426755 1.854403 -115.835880 -66.764684 78.232931 -15.648459 -7.025388 9.380877 6.847859 -46.279628 -7.046808 -10.463814 69.599953 -15.703096 4.327748 21.723585 6.809228 -0.773788 -15.597948 6.357064 -9.279720 -44.796251 1.250187 30.622567 70.781821 30.855898 -15.546341 1.696613 -5.178621 0.036578 0.223367 0.024647
-226.521993 57.193330 135.623597 -177.373743 -29.227641 -1.950576 0.319921 16.717246 1.346416 0.031091 1.723677 0.156510 0.011358 2.858352 0.270618 0.304052 14.743355 1.410090 -9.625153 11.584970 -3.860276 -16.750034 -14.158871 -3.312226 1.523356 -1.777726 -0.642384 9.454863 -12.883769 -19.627286 123.953019 -72.104238 -79.819782 15.143925 -14.193555 -50.021741 -5.710989 -3.101197 -1.530393 3.411444 -8.356618 1.864886 -114.963947 -66.953150 77.240519 -15.491865 -6.883599 9.210335 6.831035 -46.281989 -7.031037 -10.479590 69.607161 -15.716062 4.321670 21.699726 6.808979 -0.782727 -15.620598 6.356575 -9.287592 -44.806813 1.270487 30.640035 70.790995 30.868804 -15.559208 1.695527 -5.173777 0.036722 0.217482 0.027675
-226.520430 57.194385 135.613818 -177.370929 -29.221477 -1.956604 0.285358 16.699227 1.347666 0.047026 1.729965 0.153243 -0.012107 2.843882 0.276032 0.265388 14.724818 1.417983 -9.913426 11.621893 -4.002538 -17.263963 -14.096199 -3.444402 1.565723 -1.766958 -0.663309 9.478701 -12.903812 -19.657829 123.787127 -72.316473 -79.657717 15.162113 -14.162872 -50.002211 -5.699224 -3.080651 -1.574357 3.288850 -8.275280 1.858500 -113.909767 -67.227625 76.124522 -15.347395 -6.769157 9.077810 6.828673 -46.283796 -7.022989 -10.489972 69.618025 -15.725659 4.316496 21.682681 6.815633 -0.778552 -15.631576 6.349487 -9.286065 -44.814920 1.281267 30.657608 70.804467 30.882385 -15.562329 1.690180 -5.169634 0.044338 0.212337 0.024145
-226.521104 57.197107 135.600193 -177.363686 -29.240214 -1.952844 0.241070 16.704143 1.335431 0.009111 1.710116 0.160601 0.017846 2.855115 0.268347 0.241258 14.712582 1.419212 -10.199162 11.657862 -4.127099 -17.754376 -14.024079 -3.566899 1.575790 -1.792045 -0.674006 9.517436 -12.874689 -19.693459 123.633492 -72.520218 -79.517005 15.162503 -14.104287 -49.882932 -5.698656 -3.065953 -1.607555 3.183549 -8.182122 1.836896 -112.800898 -67.581100 74.982142 -15.265817 -6.655506 8.918612 6.839248 -46.262513 -7.033317 -10.494758 69.651482 -15.731009 4.310723 21.637333 6.828765 -0.782258 -15.624364 6.342278 -9.274532 -44.797881 1.270586 30.656851 70.827763 30.875952 -15.548385 1.674665 -5.168644 0.041603 0.211046 0.031491
-226.520663 57.196698 135.591805 -177.359213 -29.223274 -1.952774 0.197988 16.672263 1.326277 0.025763 1.716570 0.159084 0.004652 2.846395 0.269756 0.205386 14.695128 1.418064 -10.469087 11.697782 -4.242348 -18.218167 -13.944674 -3.679008 1.616407 -1.786942 -0.697179 9.513532 -12.861151 -19.725880 123.496060 -72.681207 -79.388328 15.152936 -14.033707 -49.681886 -5.692493 -3.050972 -1.637739 3.115666 -8.082712 1.806122 -111.758554 -67.958570 73.909080 -15.250817 -6.534108 8.688869 6.862709 -46.274745 -7.055473 -10.513990 69.661317 -15.734317 4.314720 21.625897 6.836613 -0.794803 -15.641901 6.338656 -9.280864 -44.816945 1.278697 30.649226 70.837950 30.864886 -15.545305 1.675551 -5.184229 0.042531 0.205697 0.048080
-226.519858 57.196843 135.582517 -177.369290 -29.215059 -1.946853 0.168931 16.648517 1.315195 0.041603 1.723321 0.160585 0.013077 2.849753 0.268316 0.147173 14.668308 1.412437 -10.722384 11.742279 -4.347438 -18.654030 -13.856837 -3.779479 1.665367 -1.776471 -0.715959 9.511396 -12.843822 -19.737383 123.288054 -72.764181 -79.196822 15.145014 -13.968254 -49.415947 -5.677363 -3.032089 -1.662020 3.098096 -7.989287 1.773441 -110.889615 -68.290964 72.991215 -15.283546 -6.402382 8.377036 6.880756 -46.281132 -7.065539 -10.513299 69.673822 -15.732555 4.366444 21.603086 6.848870 -0.792980 -15.677510 6.335379 -9.274891 -44.826066 1.283386 30.633715 70.855360 30.846800 -15.531588 1.666556 -5.191332 0.035770 0.203814 0.050839
-226.523969 57.197609 135.572618 -177.362953 -29.215185 -1.917296 0.135434 16.641420 1.275000 0.019762 1.711523 0.162900 0.008045 2.845651 0.267483 0.121897 14.662610 1.392626 -10.958583 11.792832 -4.441277 -19.061201 -13.757605 -3.866740 1.725133 -1.753066 -0.719208 9.441396 -12.843335 -19.791214 123.244850 -72.832620 -79.115850 15.141324 -13.915834 -49.094800 -5.661129 -3.011031 -1.678953 3.127734 -7.942032 1.767416 -110.185769 -68.552765 72.222069 -15.347786 -6.268464 7.997455 6.926107 -46.273647 -7.124751 -10.523389 69.693932 -15.739149 4.411248 21.575696 6.840754 -0.760631 -15.701661 6.346408 -9.252728 -44.831023 1.243203 30.631034 70.869735 30.838480 -15.530177 1.634000 -5.202742 0.049204 0.223937 0.047234
-226.522901 57.198677 135.563288 -177.351116 -29.214791 -1.917420 0.106034 16.634581 1.261365 0.000503 1.701789 0.159141 0.003412 2.841780 0.265729 0.097225 14.657606 1.369934 -11.176643 11.849123 -4.523701 -19.437883 -13.647614 -3.940877 1.764103 -1.755881 -0.725843 9.408802 -12.821567 -19.799892 123.111002 -72.850934 -78.952303 15.134644 -13.879748 -48.732190 -5.670797 -2.992006 -1.717020 3.194922 -7.901662 1.798344 -109.734591 -68.676319 71.725133 -15.428893 -6.148287 7.580835 6.925915 -46.272934 -7.129329 -10.523383 69.718301 -15.746346 4.409084 21.545841 6.857903 -0.781780 -15.708324 6.342423 -9.288803 -44.834322 1.260944 30.639790 70.884308 30.830047 -15.527026 1.632417 -5.224533 0.054108 0.215391 0.055673
-226.520573 57.200270 135.554396 -177.349854 -29.216431 -1.914886 0.071870 16.624423 1.238230 -0.032103 1.688048 0.141422 0.029217 2.849057 0.278041 0.076350 14.656896 1.345452 -11.376971 11.909613 -4.594600 -19.785274 -13.529698 -4.001269 1.794683 -1.762777 -0.731252 9.393932 -12.804022 -19.790573 122.930726 -72.846483 -78.740562 15.125115 -13.859471 -48.357705 -5.634829 -2.968040 -1.728058 3.355852 -7.827413 1.792351 -109.791857 -68.645206 71.633649 -15.516390 -6.054024 7.171946 6.925117 -46.269999 -7.123758 -10.525521 69.734124 -15.751739 4.374246 21.532831 6.857157 -0.815637 -15.711391 6.347798 -9.294383 -44.833866 1.263819 30.638204 70.899469 30.825390 -15.517134 1.623532 -5.233535 0.054298 0.211602 0.054430
-226.512117 57.202992 135.545156 -177.362653 -29.224549 -1.936528 0.062518 16.622500 1.246433 -0.025514 1.690680 0.140624 0.016121 2.842076 0.273107 0.085456 14.663479 1.341557 -11.589245 11.965031 -4.667966 -20.104873 -13.403107 -4.046406 1.743101 -1.804102 -0.807154 9.322756 -12.792496 -19.775126 123.174117 -72.913840 -78.866154 15.117879 -13.816053 -47.972786 -5.619328 -2.956281 -1.741555 3.509135 -7.799735 1.814531 -109.996246 -68.552867 71.693247 -15.607634 -5.985273 6.810102 6.900691 -46.263939 -7.068861 -10.526884 69.749597 -15.756489 4.334066 21.504022 6.883465 -0.796234 -15.698006 6.309286 -9.316501 -44.822194 1.307825 30.646750 70.912127 30.833926 -15.498443 1.639460 -5.240013 0.042828 0.183028 0.047936
-226.508664 57.204963 135.538845 -177.360940 -29.217761 -1.928600 0.031658 16.607944 1.212687 -0.006711 1.696765 0.152815 -0.022592 2.829323 0.242484 0.110814 14.672296 1.353792 -11.781812 12.028010 -4.733179 -20.397615 -13.264508 -4.074951 1.740873 -1.813024 -0.829375 9.275112 -12.799682 -19.797009 123.070002 -72.934845 -78.662513 15.107347 -13.836405 -47.671955 -5.595551 -2.947199 -1.736589 3.571033 -7.793677 1.827096 -110.206741 -68.404868 71.840420 -15.699985 -5.936303 6.512063 6.906106 -46.266997 -7.076267 -10.527196 69.761332 -15.758706 4.304273 21.484789 6.909575 -0.779627 -15.698068 6.275122 -9.328068 -44.830114 1.311056 30.658256 70.915995 30.835130 -15.489157 1.643432 -5.251185 0.036664 0.175174 0.052584
